<?xml version="1.0" standalone="no"?>
<!DOCTYPE svg PUBLIC "-//W3C//DTD SVG 20010904//EN"
 "http://www.w3.org/TR/2001/REC-SVG-20010904/DTD/svg10.dtd">
<svg version="1.0" xmlns="http://www.w3.org/2000/svg"
 width="500.000000pt" height="500.000000pt" viewBox="0 0 500.000000 500.000000"
 preserveAspectRatio="xMidYMid meet">

<g transform="translate(0.000000,500.000000) scale(0.100000,-0.100000)"
fill="#000000" stroke="none">
<path d="M799 4551 c-128 -41 -232 -129 -292 -246 -60 -120 -57 -3 -57 -1946
0 -1990 -6 -1830 71 -1960 67 -116 194 -198 334 -219 45 -6 676 -10 1752 -10
1840 0 1770 -2 1890 58 81 41 157 112 197 185 71 128 66 -22 66 1947 0 1954 4
1825 -62 1952 -47 91 -117 157 -222 209 l-89 44 -1766 2 c-1679 2 -1769 1
-1822 -16z m3617 -138 c73 -38 157 -126 193 -203 l26 -55 0 -1790 0 -1790 -28
-58 c-37 -74 -115 -153 -186 -186 l-56 -26 -1765 0 -1765 0 -52 24 c-62 28
-140 106 -179 182 l-29 54 0 1795 0 1795 28 60 c29 62 107 151 165 187 79 49
4 47 1852 45 l1735 -2 61 -32z"/>
<path d="M945 4295 c-5 -2 -29 -9 -53 -15 -53 -14 -114 -67 -141 -124 -21 -42
-21 -51 -21 -1274 l0 -1232 1875 0 1875 0 0 1223 c0 831 -4 1234 -11 1260 -6
23 -30 58 -57 87 -85 87 62 80 -1809 79 -906 0 -1652 -2 -1658 -4z m1795 -271
c70 -31 155 -115 194 -192 l26 -52 38 24 c87 58 210 60 312 5 72 -38 124 -93
165 -175 28 -55 30 -67 30 -169 0 -101 -2 -114 -29 -165 -36 -70 -97 -134
-161 -168 -45 -24 -60 -27 -155 -27 -94 0 -110 3 -155 27 -55 29 -140 112
-155 154 -13 33 -29 27 -56 -22 -49 -88 -158 -136 -262 -114 -65 14 -132 65
-157 119 -10 23 -24 41 -31 41 -8 0 -23 -18 -33 -39 -28 -54 -115 -127 -181
-152 -74 -28 -203 -24 -272 10 -145 70 -231 252 -198 417 31 152 170 286 314
301 67 7 156 -12 200 -42 l35 -24 7 22 c13 44 80 131 134 172 52 40 115 69
170 79 58 11 161 -3 220 -30z m-351 -898 c54 -55 120 -79 210 -74 84 4 128 21
188 73 l38 33 47 -43 c58 -52 124 -84 190 -92 38 -5 48 -10 46 -22 -3 -13 -15
-15 -68 -13 -87 4 -112 -3 -108 -31 3 -21 9 -22 91 -25 l87 -3 0 -29 0 -30
-91 0 c-88 0 -90 -1 -87 -22 3 -22 8 -23 91 -26 84 -3 87 -4 87 -27 0 -29 -25
-39 -85 -31 -58 8 -95 -1 -95 -24 0 -24 19 -30 106 -30 l74 0 0 -30 0 -30
-525 0 -525 0 0 29 0 29 85 3 c93 4 125 20 91 44 -12 9 -35 12 -70 9 -76 -6
-106 3 -106 31 0 24 3 24 93 27 84 3 92 5 92 23 0 18 -8 20 -92 23 l-93 3 0
29 0 30 84 0 c62 0 87 4 96 15 10 12 10 18 -1 31 -11 14 -27 15 -96 10 -77 -7
-83 -6 -83 12 0 16 9 20 50 25 70 8 127 36 185 90 28 25 52 46 56 47 3 0 20
-15 38 -34z m1084 -651 c210 -55 329 -222 256 -360 -71 -134 -242 -217 -419
-202 -112 9 -205 54 -307 149 -47 44 -97 84 -111 89 -13 5 -113 9 -221 9 -215
1 -364 -16 -771 -86 -282 -49 -325 -43 -377 57 -18 34 -23 56 -20 93 4 43 10
55 47 89 l42 39 106 -5 c59 -3 231 -19 382 -36 421 -46 766 -64 822 -42 13 5
53 36 90 68 145 129 322 180 481 138z"/>
<path d="M2704 3855 c-7 -18 76 -116 96 -113 29 6 22 45 -16 87 -37 42 -70 53
-80 26z"/>
<path d="M3270 3655 c-10 -12 -6 -24 21 -65 32 -50 64 -65 75 -36 7 19 -31 93
-55 106 -25 13 -26 13 -41 -5z"/>
<path d="M1757 3413 c-30 -29 28 -144 95 -190 57 -37 143 -59 165 -42 26 22 9
41 -47 56 -72 18 -118 57 -153 126 -26 53 -44 67 -60 50z"/>
<path d="M3349 3371 c-33 -77 -116 -141 -184 -141 -33 0 -45 -28 -19 -47 22
-16 57 -10 124 19 58 25 96 61 127 121 29 57 27 91 -4 95 -18 3 -26 -6 -44
-47z"/>
<path d="M882 1502 l-163 -3 3 -442 c3 -399 5 -445 21 -474 22 -42 62 -79 112
-106 l40 -22 1689 -3 c1144 -1 1700 1 1727 8 55 15 120 68 147 120 22 44 22
48 22 485 l0 440 -1717 0 c-945 0 -1791 -1 -1881 -3z m511 -161 c128 -62 145
-247 30 -326 -21 -14 -43 -25 -50 -25 -22 0 -15 -12 62 -110 41 -52 75 -103
75 -112 0 -15 -10 -18 -68 -18 l-69 0 -84 109 c-53 69 -87 105 -91 98 -4 -7
-8 -53 -8 -103 0 -74 -3 -93 -16 -98 -27 -10 -89 -7 -102 6 -9 9 -12 89 -12
300 0 263 1 288 18 298 10 7 64 9 142 7 107 -2 132 -6 173 -26z m561 23 c12
-5 16 -21 16 -65 l0 -59 -100 0 -100 0 0 -50 0 -50 74 0 c88 0 98 -9 94 -77
l-3 -48 -82 -3 -83 -3 0 -59 0 -60 88 0 c48 0 93 -4 100 -9 9 -5 12 -26 10
-67 l-3 -59 -154 -3 c-104 -2 -158 1 -167 9 -11 9 -14 67 -14 304 0 271 1 294
18 298 26 7 288 8 306 1z m518 -10 c52 -17 124 -74 133 -105 5 -16 -2 -30 -26
-55 -38 -39 -58 -42 -85 -13 -74 82 -222 76 -286 -13 -19 -28 -23 -45 -23
-110 0 -71 2 -79 30 -109 36 -38 98 -69 140 -69 37 0 100 28 141 63 l31 26 34
-25 c65 -47 63 -75 -10 -129 -66 -48 -123 -67 -204 -66 -231 1 -382 250 -276
456 38 73 115 139 183 155 55 14 171 11 218 -6z m372 10 c14 -5 16 -41 16
-298 0 -214 -3 -295 -12 -304 -17 -17 -84 -15 -102 4 -14 13 -16 55 -16 299 0
260 1 285 18 294 19 12 72 14 96 5z m581 -16 c70 -37 115 -111 115 -188 0 -67
-18 -107 -68 -152 -51 -46 -93 -58 -204 -58 l-88 0 0 -81 c0 -106 -8 -119 -68
-119 -27 0 -53 5 -60 12 -9 9 -12 90 -12 304 0 270 1 293 18 298 9 3 89 4 177
2 124 -2 167 -6 190 -18z m589 9 c13 -10 17 -24 14 -62 l-3 -50 -105 -5 -105
-5 -3 -47 -3 -48 74 0 c95 0 109 -10 105 -75 l-3 -50 -85 -5 -85 -5 -3 -57 -3
-58 99 0 c63 0 102 -4 110 -12 7 -7 12 -33 12 -58 0 -25 -5 -51 -12 -58 -8 -8
-59 -12 -164 -12 -125 0 -155 3 -168 16 -14 13 -16 55 -16 300 l0 285 23 9
c36 14 300 12 321 -3z"/>
<path d="M1190 1171 l0 -71 65 0 c72 0 105 20 105 64 0 47 -31 69 -104 74
l-66 4 0 -71z"/>
<path d="M3178 1233 c-2 -4 -2 -41 0 -81 l4 -74 90 4 c85 3 91 5 115 32 28 33
25 67 -8 101 -16 16 -36 21 -108 23 -49 2 -90 0 -93 -5z"/>
</g>
</svg>
